{
  "accessors": [
    {
      "bufferView": 2,
      "componentType": 5126,
      "count": 65532,
      "max": [
        2.5052199363708496,
        2.3103799819946289,
        1.7145400047302246
      ],
      "min": [
        -2.5281898975372314,
        -1.7084399461746216,
        -3.2921299934387207
      ],
      "type": "VEC3"
    },
    {
      "bufferView": 2,
      "byteOffset": 786384,
      "componentType": 5126,
      "count": 65532,
      "max": [
        1,
        0.99996161460876465,
        1
      ],
      "min": [
        -1,
        -0.99966549873352051,
        -1
      ],
      "type": "VEC3"
    },
    {
      "bufferView": 3,
      "componentType": 5126,
      "count": 65532,
      "max": [
        0.9999963641166687,
        1,
        1,
        1
      ],
      "min": [
        -1,
        -1,
        -1,
        -1
      ],
      "type": "VEC4"
    },
    {
      "bufferView": 1,
      "componentType": 5126,
      "count": 65532,
      "max": [
        0.99834001064300537,
        0.99839997291564941
      ],
      "min": [
        0.0015800000401213765,
        0.0015800000401213765
      ],
      "type": "VEC2"
    },
    {
      "bufferView": 0,
      "componentType": 5125,
      "count": 280818,
      "max": [
        65531
      ],
      "min": [
        0
      ],
      "type": "SCALAR"
    },
    {
      "bufferView": 2,
      "byteOffset": 1572768,
      "componentType": 5126,
      "count": 34529,
      "max": [
        2.5179500579833984,
        2.3103799819946289,
        1.6962599754333496
      ],
      "min": [
        -2.5281898975372314,
        -2.0652101039886475,
        -3.8699300289154053
      ],
      "type": "VEC3"
    },
    {
      "bufferView": 2,
      "byteOffset": 1987116,
      "componentType": 5126,
      "count": 34529,
      "max": [
        0.99966859817504883,
        0.99999821186065674,
        1
      ],
      "min": [
        -0.99967169761657715,
        -0.99999719858169556,
        -0.99999868869781494
      ],
      "type": "VEC3"
    },
    {
      "bufferView": 3,
      "byteOffset": 1048512,
      "componentType": 5126,
      "count": 34529,
      "max": [
        0.9999920129776001,
        0.99987703561782837,
        0.99998980760574341,
        1
      ],
      "min": [
        -1,
        -0.99980640411376953,
        -0.99961882829666138,
        -1
      ],
      "type": "VEC4"
    },
    {
      "bufferView": 1,
      "byteOffset": 524256,
      "componentType": 5126,
      "count": 34529,
      "max": [
        0.99842000007629395,
        0.99839997291564941
      ],
      "min": [
        0.0015800000401213765,
        0.0015800000401213765
      ],
      "type": "VEC2"
    },
    {
      "bufferView": 0,
      "byteOffset": 1123272,
      "componentType": 5125,
      "count": 103920,
      "max": [
        34528
      ],
      "min": [
        0
      ],
      "type": "SCALAR"
    },
    {
      "bufferView": 2,
      "byteOffset": 2401464,
      "componentType": 5126,
      "count": 65532,
      "max": [
        3.0513501167297363,
        1.5643899440765381,
        1.960319995880127
      ],
      "min": [
        -1.7334599494934082,
        -1.0340299606323242,
        -2.9187099933624268
      ],
      "type": "VEC3"
    },
    {
      "bufferView": 2,
      "byteOffset": 3187848,
      "componentType": 5126,
      "count": 65532,
      "max": [
        0.99998360872268677,
        0.99999994039535522,
        0.99999970197677612
      ],
      "min": [
        -0.99998360872268677,
        -0.99999982118606567,
        -0.99999922513961792
      ],
      "type": "VEC3"
    },
    {
      "bufferView": 3,
      "byteOffset": 1600976,
      "componentType": 5126,
      "count": 65532,
      "max": [
        1,
        1,
        0.99964213371276855,
        1
      ],
      "min": [
        -1,
        -0.99999946355819702,
        -0.99989569187164307,
        -1
      ],
      "type": "VEC4"
    },
    {
      "bufferView": 1,
      "byteOffset": 800488,
      "componentType": 5126,
      "count": 65532,
      "max": [
        0.99699002504348755,
        0.99681001901626587
      ],
      "min": [
        0.0030100001022219658,
        0.0030100001022219658
      ],
      "type": "VEC2"
    },
    {
      "bufferView": 0,
      "byteOffset": 1538952,
      "componentType": 5125,
      "count": 349758,
      "max": [
        65531
      ],
      "min": [
        0
      ],
      "type": "SCALAR"
    },
    {
      "bufferView": 2,
      "byteOffset": 3974232,
      "componentType": 5126,
      "count": 65532,
      "max": [
        0.95791000127792358,
        1.1117899417877197,
        0.75126999616622925
      ],
      "min": [
        -1.0965299606323242,
        -1.1713199615478516,
        -2.9187099933624268
      ],
      "type": "VEC3"
    },
    {
      "bufferView": 2,
      "byteOffset": 4760616,
      "componentType": 5126,
      "count": 65532,
      "max": [
        0.99963301420211792,
        0.99398434162139893,
        0.99487346410751343
      ],
      "min": [
        -0.9999815821647644,
        -0.99997025728225708,
        -0.99983763694763184
      ],
      "type": "VEC3"
    },
    {
      "bufferView": 3,
      "byteOffset": 2649488,
      "componentType": 5126,
      "count": 65532,
      "max": [
        0.9999997615814209,
        0.99699574708938599,
        0.99996733665466309,
        1
      ],
      "min": [
        -1,
        -0.99579846858978271,
        -0.99985826015472412,
        -1
      ],
      "type": "VEC4"
    },
    {
      "bufferView": 1,
      "byteOffset": 1324744,
      "componentType": 5126,
      "count": 65532,
      "max": [
        0.99629998207092285,
        0.99686002731323242
      ],
      "min": [
        0.0065799998119473457,
        0.0030100001022219658
      ],
      "type": "VEC2"
    },
    {
      "bufferView": 0,
      "byteOffset": 2937984,
      "componentType": 5125,
      "count": 356157,
      "max": [
        65531
      ],
      "min": [
        0
      ],
      "type": "SCALAR"
    },
    {
      "bufferView": 2,
      "byteOffset": 5547000,
      "componentType": 5126,
      "count": 65532,
      "max": [
        0.95806998014450073,
        -0.079879999160766602,
        -0.65856999158859253
      ],
      "min": [
        -0.95791000127792358,
        -1.1806600093841553,
        -1.9751800298690796
      ],
      "type": "VEC3"
    },
    {
      "bufferView": 2,
      "byteOffset": 6333384,
      "componentType": 5126,
      "count": 65532,
      "max": [
        0.9999815821647644,
        0.9496842622756958,
        0.99164330959320068
      ],
      "min": [
        -0.99997991323471069,
        -0.99999886751174927,
        -0.99937516450881958
      ],
      "type": "VEC3"
    },
    {
      "bufferView": 3,
      "byteOffset": 3698000,
      "componentType": 5126,
      "count": 65532,
      "max": [
        0.99793624877929688,
        0.99484235048294067,
        0.95518994331359863,
        1
      ],
      "min": [
        -0.97852933406829834,
        -0.9987218976020813,
        -0.91009724140167236,
        -1
      ],
      "type": "VEC4"
    },
    {
      "bufferView": 1,
      "byteOffset": 1849000,
      "componentType": 5126,
      "count": 65532,
      "max": [
        0.99620997905731201,
        0.99673002958297729
      ],
      "min": [
        0.10120999813079834,
        0.0031099999323487282
      ],
      "type": "VEC2"
    },
    {
      "bufferView": 0,
      "byteOffset": 4362612,
      "componentType": 5125,
      "count": 347118,
      "max": [
        65531
      ],
      "min": [
        0
      ],
      "type": "SCALAR"
    },
    {
      "bufferView": 2,
      "byteOffset": 7119768,
      "componentType": 5126,
      "count": 65532,
      "max": [
        0.85496997833251953,
        0.48912999033927917,
        -0.65865999460220337
      ],
      "min": [
        -0.95806998014450073,
        -1.1806600093841553,
        -3.0296800136566162
      ],
      "type": "VEC3"
    },
    {
      "bufferView": 2,
      "byteOffset": 7906152,
      "componentType": 5126,
      "count": 65532,
      "max": [
        0.99999946355819702,
        0.99996334314346313,
        1
      ],
      "min": [
        -0.99999696016311646,
        -1,
        -0.99998492002487183
      ],
      "type": "VEC3"
    },
    {
      "bufferView": 3,
      "byteOffset": 4746512,
      "componentType": 5126,
      "count": 65532,
      "max": [
        1,
        0.99969387054443359,
        0.99929153919219971,
        1
      ],
      "min": [
        -0.99999761581420898,
        -0.99649310111999512,
        -1,
        -1
      ],
      "type": "VEC4"
    },
    {
      "bufferView": 1,
      "byteOffset": 2373256,
      "componentType": 5126,
      "count": 65532,
      "max": [
        0.99637001752853394,
        0.99699002504348755
      ],
      "min": [
        0.10120999813079834,
        0.10045000165700912
      ],
      "type": "VEC2"
    },
    {
      "bufferView": 0,
      "byteOffset": 5751084,
      "componentType": 5125,
      "count": 359127,
      "max": [
        65531
      ],
      "min": [
        0
      ],
      "type": "SCALAR"
    },
    {
      "bufferView": 2,
      "byteOffset": 8692536,
      "componentType": 5126,
      "count": 7728,
      "max": [
        -0.47942999005317688,
        0.48912999033927917,
        -2.8922998905181885
      ],
      "min": [
        -0.85496997833251953,
        -0.28591999411582947,
        -3.0296800136566162
      ],
      "type": "VEC3"
    },
    {
      "bufferView": 2,
      "byteOffset": 8785272,
      "componentType": 5126,
      "count": 7728,
      "max": [
        0.99999696016311646,
        0.99996334314346313,
        1
      ],
      "min": [
        -0.99999946355819702,
        -1,
        -0.99998492002487183
      ],
      "type": "VEC3"
    },
    {
      "bufferView": 3,
      "byteOffset": 5795024,
      "componentType": 5126,
      "count": 7728,
      "max": [
        0.99999994039535522,
        0.81705784797668457,
        0.99999827146530151,
        1
      ],
      "min": [
        -0.99999797344207764,
        -0.69370937347412109,
        -1,
        1
      ],
      "type": "VEC4"
    },
    {
      "bufferView": 1,
      "byteOffset": 2897512,
      "componentType": 5126,
      "count": 7728,
      "max": [
        0.98746001720428467,
        0.9769899845123291
      ],
      "min": [
        0.45216000080108643,
        0.26752001047134399
      ],
      "type": "VEC2"
    },
    {
      "bufferView": 0,
      "byteOffset": 7187592,
      "componentType": 5125,
      "count": 43968,
      "max": [
        7727
      ],
      "min": [
        0
      ],
      "type": "SCALAR"
    }
  ],
  "asset": {
    "extras": {
      "author": "HomoMilch (https://sketchfab.com/homomilk)",
      "license": "CC-BY-4.0 (http://creativecommons.org/licenses/by/4.0/)",
      "source": "https://sketchfab.com/models/076fd5ed1ff9489db4b1357dd3497ef1",
      "title": "Pikapool"
    },
    "generator": "Sketchfab-3.29.3",
    "version": "2.0"
  },
  "bufferViews": [
    {
      "buffer": 0,
      "byteLength": 7363464,
      "byteOffset": 0,
      "name": "floatBufferViews",
      "target": 34963
    },
    {
      "buffer": 0,
      "byteLength": 2959336,
      "byteOffset": 7363464,
      "byteStride": 8,
      "name": "floatBufferViews",
      "target": 34962
    },
    {
      "buffer": 0,
      "byteLength": 8878008,
      "byteOffset": 10322800,
      "byteStride": 12,
      "name": "floatBufferViews",
      "target": 34962
    },
    {
      "buffer": 0,
      "byteLength": 5918672,
      "byteOffset": 19200808,
      "byteStride": 16,
      "name": "floatBufferViews",
      "target": 34962
    }
  ],
  "buffers": [
    {
      "byteLength": 25119480,
      "uri": "scene.bin"
    }
  ],
  "extensionsRequired": [
    "KHR_materials_pbrSpecularGlossiness"
  ],
  "extensionsUsed": [
    "KHR_materials_pbrSpecularGlossiness"
  ],
  "images": [
    {
      "uri": "textures/Material_diffuse.png"
    },
    {
      "uri": "textures/Material.001_diffuse.png"
    }
  ],
  "materials": [
    {
      "doubleSided": true,
      "emissiveFactor": [
        0,
        0,
        0
      ],
      "extensions": {
        "KHR_materials_pbrSpecularGlossiness": {
          "diffuseFactor": [
            1,
            1,
            1,
            1
          ],
          "diffuseTexture": {
            "index": 0,
            "texCoord": 0
          },
          "glossinessFactor": 0.59999999999999998,
          "specularFactor": [
            0,
            0,
            0
          ]
        }
      },
      "name": "Material"
    },
    {
      "doubleSided": true,
      "emissiveFactor": [
        0,
        0,
        0
      ],
      "extensions": {
        "KHR_materials_pbrSpecularGlossiness": {
          "diffuseFactor": [
            1,
            1,
            1,
            1
          ],
          "diffuseTexture": {
            "index": 1,
            "texCoord": 0
          },
          "glossinessFactor": 0.59999999999999998,
          "specularFactor": [
            0,
            0,
            0
          ]
        }
      },
      "name": "Material.001"
    }
  ],
  "meshes": [
    {
      "name": "Circle.000_0",
      "primitives": [
        {
          "attributes": {
            "NORMAL": 1,
            "POSITION": 0,
            "TANGENT": 2,
            "TEXCOORD_0": 3
          },
          "indices": 4,
          "material": 1,
          "mode": 4
        }
      ]
    },
    {
      "name": "Circle.000_0",
      "primitives": [
        {
          "attributes": {
            "NORMAL": 6,
            "POSITION": 5,
            "TANGENT": 7,
            "TEXCOORD_0": 8
          },
          "indices": 9,
          "material": 1,
          "mode": 4
        }
      ]
    },
    {
      "name": "Sphere.000_0",
      "primitives": [
        {
          "attributes": {
            "NORMAL": 11,
            "POSITION": 10,
            "TANGENT": 12,
            "TEXCOORD_0": 13
          },
          "indices": 14,
          "material": 0,
          "mode": 4
        }
      ]
    },
    {
      "name": "Sphere.000_0",
      "primitives": [
        {
          "attributes": {
            "NORMAL": 16,
            "POSITION": 15,
            "TANGENT": 17,
            "TEXCOORD_0": 18
          },
          "indices": 19,
          "material": 0,
          "mode": 4
        }
      ]
    },
    {
      "name": "Sphere.000_0",
      "primitives": [
        {
          "attributes": {
            "NORMAL": 21,
            "POSITION": 20,
            "TANGENT": 22,
            "TEXCOORD_0": 23
          },
          "indices": 24,
          "material": 0,
          "mode": 4
        }
      ]
    },
    {
      "name": "Sphere.000_0",
      "primitives": [
        {
          "attributes": {
            "NORMAL": 26,
            "POSITION": 25,
            "TANGENT": 27,
            "TEXCOORD_0": 28
          },
          "indices": 29,
          "material": 0,
          "mode": 4
        }
      ]
    },
    {
      "name": "Sphere.000_0",
      "primitives": [
        {
          "attributes": {
            "NORMAL": 31,
            "POSITION": 30,
            "TANGENT": 32,
            "TEXCOORD_0": 33
          },
          "indices": 34,
          "material": 0,
          "mode": 4
        }
      ]
    }
  ],
  "nodes": [
    {
      "children": [
        1
      ],
      "name": "RootNode (gltf orientation matrix)",
      "rotation": [
        -0.70710678118654746,
        -0,
        -0,
        0.70710678118654757
      ]
    },
    {
      "children": [
        2
      ],
      "name": "RootNode (model correction matrix)"
    },
    {
      "children": [
        3,
        6
      ],
      "name": "Root"
    },
    {
      "children": [
        4,
        5
      ],
      "matrix": [
        1,
        0,
        0,
        0,
        0,
        1,
        0,
        0,
        0,
        0,
        1,
        0,
        0,
        0,
        1.5019699999999998,
        1
      ],
      "name": "Circle.000"
    },
    {
      "mesh": 0,
      "name": "Circle.000_0"
    },
    {
      "mesh": 1,
      "name": "Circle.000_0"
    },
    {
      "children": [
        7,
        8,
        9,
        10,
        11
      ],
      "matrix": [
        1.7858400000000001,
        0,
        0,
        0,
        0,
        1.7858400000000001,
        0,
        0,
        0,
        0,
        1.7858400000000001,
        0,
        0,
        0,
        2.6433400000000002,
        1
      ],
      "name": "Sphere.000"
    },
    {
      "mesh": 2,
      "name": "Sphere.000_0"
    },
    {
      "mesh": 3,
      "name": "Sphere.000_0"
    },
    {
      "mesh": 4,
      "name": "Sphere.000_0"
    },
    {
      "mesh": 5,
      "name": "Sphere.000_0"
    },
    {
      "mesh": 6,
      "name": "Sphere.000_0"
    }
  ],
  "samplers": [
    {
      "magFilter": 9729,
      "minFilter": 9987,
      "wrapS": 10497,
      "wrapT": 10497
    }
  ],
  "scene": 0,
  "scenes": [
    {
      "name": "OSG_Scene",
      "nodes": [
        0
      ]
    }
  ],
  "textures": [
    {
      "sampler": 0,
      "source": 0
    },
    {
      "sampler": 0,
      "source": 1
    }
  ]
}

